<svg width="110" height="132" viewBox="0 0 110 132" fill="none" xmlns="http://www.w3.org/2000/svg">
<path d="M18.2204 94.2213C13.2483 87.4066 8.07143 81.4401 2.80685 74.9178C-2.10675 68.8051 0.0283243 67.7522 4.6202 62.3121C8.45165 57.808 12.5756 53.8595 16.407 49.2384C25.7078 38.0658 34.1311 26.0158 42.3497 14.0535C44.6895 10.6023 47.7605 3.14412 50.5098 0.95055C55.9791 -3.46584 58.9916 10.2806 59.869 13.4685L60.1322 14.3167C63.0278 23.8807 68.4093 31.1341 73.9956 39.2065C82.3312 50.5253 91.0178 52.0169 103.74 55.3804C105.993 55.9654 111.52 57.9835 108.976 61.1422C106.958 63.6575 98.6514 68.9513 95.2587 71.6129C80.0791 83.6044 63.0862 101.036 53.259 117.736C51.6797 120.427 47.7897 128.149 45.9471 129.845C42.7591 132.74 40.4778 130.635 39.0154 127.388C36.0322 120.866 33.3706 115.923 29.393 109.927C25.854 104.575 21.9933 99.4274 18.2204 94.2213Z" fill="#2F2B29"/>
</svg>
